HIERARCHY
ROOT Hips
{
    OFFSET   0.000000   0.000000   0.000000
    CHANNELS 6 Xposition Yposition Zposition Zrotation Xrotation Yrotation
    JOINT Chest
    {
        OFFSET   0.000000   8.007230   0.000000
        CHANNELS 3 Zrotation Xrotation Yrotation
        JOINT Chest2
        {
            OFFSET   0.000000  22.077100   0.000000
            CHANNELS 3 Zrotation Xrotation Yrotation
            JOINT Neck
            {
                OFFSET   0.000000  23.254800  -0.000021
                CHANNELS 3 Zrotation Xrotation Yrotation
                JOINT Head
                {
                    OFFSET   0.000000  14.370000   1.956610
                    CHANNELS 3 Zrotation Xrotation Yrotation
                    End Site
                    {
                        OFFSET   0.000000  19.566000   0.000000
                    }
                }
            }
            JOINT LeftCollar
            {
                OFFSET   3.911900  19.017000  -0.467063
                CHANNELS 3 Zrotation Xrotation Yrotation
                JOINT LeftShoulder
                {
                    OFFSET  10.383700   0.000000   0.000000
                    CHANNELS 3 Zrotation Xrotation Yrotation
                    JOINT LeftElbow
                    {
                        OFFSET  26.662100   0.001529   0.000325
                        CHANNELS 3 Zrotation Xrotation Yrotation
                        JOINT LeftWrist
                        {
                            OFFSET  28.869000  -0.000011  -0.000096
                            CHANNELS 3 Zrotation Xrotation Yrotation
                            JOINT LeftFinger0
                            {
                                OFFSET   2.044650  -2.323460   3.252850
                                CHANNELS 3 Zrotation Xrotation Yrotation
                                JOINT LeftFinger01
                                {
                                    OFFSET   3.088130   0.000000   0.000000
                                    CHANNELS 3 Zrotation Xrotation Yrotation
                                    JOINT LeftFinger02
                                    {
                                        OFFSET   2.639460   0.000000   0.000000
                                        CHANNELS 3 Zrotation Xrotation Yrotation
                                        End Site
                                        {
                                            OFFSET   2.582190   0.000000   0.000000
                                        }
                                    }
                                }
                            }
                            JOINT LeftFinger1
                            {
                                OFFSET   8.364480   0.000000   3.252850
                                CHANNELS 3 Zrotation Xrotation Yrotation
                                JOINT LeftFinger11
                                {
                                    OFFSET   4.646930   0.000000   0.000000
                                    CHANNELS 3 Zrotation Xrotation Yrotation
                                    JOINT LeftFinger12
                                    {
                                        OFFSET   2.323460   0.000000   0.000000
                                        CHANNELS 3 Zrotation Xrotation Yrotation
                                        End Site
                                        {
                                            OFFSET   2.273050   0.000000   0.000000
                                        }
                                    }
                                }
                            }
                            JOINT LeftFinger2
                            {
                                OFFSET   8.364480   0.000016   1.078090
                                CHANNELS 3 Zrotation Xrotation Yrotation
                                JOINT LeftFinger21
                                {
                                    OFFSET   5.111620   0.000000   0.000000
                                    CHANNELS 3 Zrotation Xrotation Yrotation
                                    JOINT LeftFinger22
                                    {
                                        OFFSET   2.788160   0.000017   0.000000
                                        CHANNELS 3 Zrotation Xrotation Yrotation
                                        End Site
                                        {
                                            OFFSET   2.727660   0.000000   0.000000
                                        }
                                    }
                                }
                            }
                            JOINT LeftFinger3
                            {
                                OFFSET   7.899780   0.000015  -1.078090
                                CHANNELS 3 Zrotation Xrotation Yrotation
                                JOINT LeftFinger31
                                {
                                    OFFSET   4.646920   0.000000   0.000000
                                    CHANNELS 3 Zrotation Xrotation Yrotation
                                    JOINT LeftFinger32
                                    {
                                        OFFSET   2.323470   0.000000   0.000000
                                        CHANNELS 3 Zrotation Xrotation Yrotation
                                        End Site
                                        {
                                            OFFSET   2.273050   0.000000   0.000000
                                        }
                                    }
                                }
                            }
                            JOINT LeftFinger4
                            {
                                OFFSET   7.435090   0.000000  -3.252850
                                CHANNELS 3 Zrotation Xrotation Yrotation
                                JOINT LeftFinger41
                                {
                                    OFFSET   3.717550   0.000000   0.000000
                                    CHANNELS 3 Zrotation Xrotation Yrotation
                                    JOINT LeftFinger42
                                    {
                                        OFFSET   1.858760   0.000000   0.000000
                                        CHANNELS 3 Zrotation Xrotation Yrotation
                                        End Site
                                        {
                                            OFFSET   1.818440   0.000000   0.000000
                                        }
                                    }
                                }
                            }
                        }
                    }
                }
            }
            JOINT RightCollar
            {
                OFFSET  -3.911900  19.017000  -0.467062
                CHANNELS 3 Zrotation Xrotation Yrotation
                JOINT RightShoulder
                {
                    OFFSET -10.383700   0.000015   0.000000
                    CHANNELS 3 Zrotation Xrotation Yrotation
                    JOINT RightElbow
                    {
                        OFFSET -26.662100   0.001341   0.000385
                        CHANNELS 3 Zrotation Xrotation Yrotation
                        JOINT RightWrist
                        {
                            OFFSET -28.869000   0.000025  -0.000080
                            CHANNELS 3 Zrotation Xrotation Yrotation
                            JOINT RightFinger0
                            {
                                OFFSET  -2.044650  -2.323490   3.252850
                                CHANNELS 3 Zrotation Xrotation Yrotation
                                JOINT RightFinger01
                                {
                                    OFFSET  -3.088130   0.000000   0.000000
                                    CHANNELS 3 Zrotation Xrotation Yrotation
                                    JOINT RightFinger02
                                    {
                                        OFFSET  -2.639460   0.000000   0.000000
                                        CHANNELS 3 Zrotation Xrotation Yrotation
                                        End Site
                                        {
                                            OFFSET  -2.582190   0.000000   0.000000
                                        }
                                    }
                                }
                            }
                            JOINT RightFinger1
                            {
                                OFFSET  -8.364480   0.000000   3.252850
                                CHANNELS 3 Zrotation Xrotation Yrotation
                                JOINT RightFinger11
                                {
                                    OFFSET  -4.646930   0.000000   0.000000
                                    CHANNELS 3 Zrotation Xrotation Yrotation
                                    JOINT RightFinger12
                                    {
                                        OFFSET  -2.323470   0.000000   0.000000
                                        CHANNELS 3 Zrotation Xrotation Yrotation
                                        End Site
                                        {
                                            OFFSET  -2.273050   0.000000   0.000000
                                        }
                                    }
                                }
                            }
                            JOINT RightFinger2
                            {
                                OFFSET  -8.364480   0.000000   1.078090
                                CHANNELS 3 Zrotation Xrotation Yrotation
                                JOINT RightFinger21
                                {
                                    OFFSET  -5.111610   0.000000   0.000000
                                    CHANNELS 3 Zrotation Xrotation Yrotation
                                    JOINT RightFinger22
                                    {
                                        OFFSET  -2.788160   0.000000   0.000000
                                        CHANNELS 3 Zrotation Xrotation Yrotation
                                        End Site
                                        {
                                            OFFSET  -2.727660   0.000000   0.000000
                                        }
                                    }
                                }
                            }
                            JOINT RightFinger3
                            {
                                OFFSET  -7.899780   0.000000  -1.078090
                                CHANNELS 3 Zrotation Xrotation Yrotation
                                JOINT RightFinger31
                                {
                                    OFFSET  -4.646920   0.000000   0.000000
                                    CHANNELS 3 Zrotation Xrotation Yrotation
                                    JOINT RightFinger32
                                    {
                                        OFFSET  -2.323470   0.000000   0.000000
                                        CHANNELS 3 Zrotation Xrotation Yrotation
                                        End Site
                                        {
                                            OFFSET  -2.273050   0.000000   0.000000
                                        }
                                    }
                                }
                            }
                            JOINT RightFinger4
                            {
                                OFFSET  -7.435090   0.000000  -3.252850
                                CHANNELS 3 Zrotation Xrotation Yrotation
                                JOINT RightFinger41
                                {
                                    OFFSET  -3.717550   0.000000   0.000000
                                    CHANNELS 3 Zrotation Xrotation Yrotation
                                    JOINT RightFinger42
                                    {
                                        OFFSET  -1.858770   0.000000   0.000000
                                        CHANNELS 3 Zrotation Xrotation Yrotation
                                        End Site
                                        {
                                            OFFSET  -1.818440   0.000000   0.000000
                                        }
                                    }
                                }
                            }
                        }
                    }
                }
            }
        }
    }
    JOINT LeftHip
    {
        OFFSET   9.783010   0.000000   0.000000
        CHANNELS 3 Zrotation Xrotation Yrotation
        JOINT LeftKnee
        {
            OFFSET   0.000070 -41.789100   0.000028
            CHANNELS 3 Zrotation Xrotation Yrotation
            JOINT LeftAnkle
            {
                OFFSET   0.000087 -41.133200  -0.000100
                CHANNELS 3 Zrotation Xrotation Yrotation
                JOINT LeftToe
                {
                    OFFSET   0.000000  -6.358960  14.674500
                    CHANNELS 3 Zrotation Xrotation Yrotation
                    End Site
                    {
                        OFFSET   0.000000   0.000000   3.913200
                    }
                }
            }
        }
    }
    JOINT RightHip
    {
        OFFSET  -9.783020   0.000000   0.000000
        CHANNELS 3 Zrotation Xrotation Yrotation
        JOINT RightKnee
        {
            OFFSET   0.000044 -41.789100  -0.000870
            CHANNELS 3 Zrotation Xrotation Yrotation
            JOINT RightAnkle
            {
                OFFSET  -0.000090 -41.133200  -0.000245
                CHANNELS 3 Zrotation Xrotation Yrotation
                JOINT RightToe
                {
                    OFFSET   0.000000  -6.358960  14.674500
                    CHANNELS 3 Zrotation Xrotation Yrotation
                    End Site
                    {
                        OFFSET   0.000000   0.000000   3.913200
                    }
                }
            }
        }
    }
}
MOTION
Frames: 6
Frame Time:   0.016667
  1.096270  89.958000   1.134520  -0.333209  -3.205260  -0.649033  -0.579967   3.278700  -0.124630  -1.155620   6.558490  -0.216479   0.839018   0.766063  -0.005785   1.378950   1.552490   5.794170  -2.762080  -0.241074   3.076760 -71.253500  14.043100   1.438720  -3.139330  -6.218110 -16.123400  11.179000  -2.686340   4.595210  48.128600  41.433200 -80.231200 -25.007000   0.000693   0.001368  -7.504180  -0.003896   0.000379 -33.278700   5.631780  -8.501630 -27.568000  -0.001614   0.000000 -19.307000  -0.010555   0.003951 -28.705900  -0.069349   0.126631 -39.205800  -0.006916   0.001545 -26.102700  -0.000295   0.000450 -28.135900  -0.893078   1.669540 -33.024300  -0.005351   0.001900 -21.988100  -0.012622   0.001305 -29.519700  -3.313500   5.826640 -44.543900  -0.013481   0.007367 -29.659900   0.000379   0.000125  10.001500   2.691430   4.622470  67.861000   3.261990  -1.758090   2.294730 -10.855700  11.291200 -12.208100 -11.428700  -4.644110 -34.940000  27.490000  64.211800  32.098200   0.003198  -0.009065  11.046100  -0.005673  -0.004899  26.795300   1.847100   3.651850  21.971600   0.005211   0.000373  15.380100   0.008680  -0.000789  25.623100  -0.729325  -1.520220  25.632800   0.005839   0.000061  17.071500  -0.003202  -0.001089  25.309200  -2.822090  -5.943820  25.455800   0.003628  -0.008845  16.953500  -0.001139  -0.004924  30.651900  -3.364350  -5.655310  46.227200  -0.004196  -0.006404  30.787300  -0.005111  -0.002997  -0.338935   4.679350   2.179630   0.258470   0.806202  12.090600  -4.597240  -3.414500   5.171310   0.000000   0.000000  -0.000000   1.191860   5.200940  -7.590440   0.771389   1.354880  -7.501530  -9.267210  -0.076344   0.914700  -0.000000   0.000000   0.000000
  1.096280  89.958100   1.134500  -0.332701  -3.213030  -0.639059  -0.580151   3.285860  -0.120591  -1.156370   6.572770  -0.208279   0.822809   0.783177  -0.005786   1.352270   1.587160   5.845880  -2.770850  -0.241131   3.067060 -71.238600  14.063300   1.416520  -3.138190  -6.246440 -16.119400  11.180900  -2.677170   4.586940  48.133600  41.433900 -80.234900 -25.007000   0.000688   0.001357  -7.504100  -0.003895   0.000371 -33.276100   5.639910  -8.515710 -27.568000  -0.001615   0.000000 -19.307200  -0.010549   0.003927 -28.706000  -0.059750   0.109105 -39.199600  -0.006914   0.001546 -26.102700  -0.000289   0.000442 -28.136600  -0.882813   1.650350 -33.024500  -0.005348   0.001900 -21.989900  -0.012628   0.001305 -29.522500  -3.305250   5.812380 -44.543100  -0.013483   0.007377 -29.661300   0.000378   0.000127  10.002300   2.680750   4.628030  67.853400   3.261700  -1.743950   2.286310 -10.895400  11.263200 -12.226500 -11.415400  -4.665530 -34.932300  27.475200  64.223900  32.096700   0.003198  -0.009066  11.046100  -0.005678  -0.004889  26.800200   1.859450   3.675360  21.976200   0.005210   0.000376  15.383400   0.008680  -0.000775  25.631400  -0.721476  -1.503100  25.640800   0.005840   0.000061  17.076800  -0.003203  -0.001073  25.321400  -2.810070  -5.916130  25.466500   0.003626  -0.008844  16.960600  -0.001144  -0.004918  30.666000  -3.350040  -5.629510  46.246000  -0.004190  -0.006404  30.799800  -0.005100  -0.002991  -0.338655   4.681940   2.174500   0.258465   0.805871  12.090600  -4.597560  -3.414200   5.165910   0.000000   0.000000   0.000000   1.194380   5.213310  -7.599710   0.771526   1.351270  -7.506120  -9.266570  -0.080994   0.918672   0.000000   0.000000   0.000000
  1.096340  89.958100   1.134470  -0.331805  -3.228150  -0.621666  -0.580299   3.297940  -0.113804  -1.156910   6.596860  -0.194564   0.790277   0.817547  -0.005790   1.298800   1.656840   5.943890  -2.789300  -0.241189   3.052250 -71.214800  14.098700   1.372080  -3.134630  -6.295770 -16.111500  11.186000  -2.663880   4.569150  48.138400  41.434400 -80.238600 -25.007000   0.000684   0.001335  -7.503920  -0.003894   0.000352 -33.272100   5.652470  -8.536510 -27.568000  -0.001617   0.000000 -19.307400  -0.010544   0.003903 -28.706100  -0.043740   0.079871 -39.193300  -0.006907   0.001548 -26.102700  -0.000271   0.000418 -28.137700  -0.866288   1.619420 -33.026100  -0.005341   0.001902 -21.995300  -0.012644   0.001305 -29.528400  -3.292630   5.789990 -44.542300  -0.013489   0.007404 -29.665200   0.000376   0.000131  10.003700   2.661780   4.637790  67.836100   3.259500  -1.717820   2.271480 -10.970200  11.217500 -12.253800 -11.381700  -4.695470 -34.909400  27.446200  64.234900  32.092100   0.003195  -0.009068  11.046100  -0.005686  -0.004864  26.811100   1.877140   3.708420  21.986100   0.005207   0.000381  15.390300   0.008681  -0.000740  25.647000  -0.713627  -1.485990  25.656200   0.005840   0.000064  17.087000  -0.003206  -0.001035  25.344600  -2.798060  -5.884360  25.488500   0.003620  -0.008843  16.975300  -0.001155  -0.004896  30.696700  -3.335770  -5.597800  46.289800  -0.004171  -0.006403  30.829000  -0.005071  -0.002974  -0.338804   4.700030   2.167480   0.258437   0.803551  12.090600  -4.597930  -3.413240   5.157680  -0.000000   0.000000   0.000000   1.198440   5.233550  -7.614320   0.771787   1.347650  -7.516000  -9.265040  -0.089094   0.925761   0.000000   0.000000   0.000000
  1.099710  89.958200   1.137260  -0.330969  -3.244070  -0.606004  -0.578421   3.307520  -0.107681  -1.153360   6.615960  -0.182190   0.752309   0.856911  -0.005801   1.236500   1.736650   6.043630  -2.813490  -0.236608   3.041550 -71.198200  14.128300   1.322590  -3.128040  -6.337140 -16.102500  11.195800  -2.657670   4.546840  48.132900  41.433600 -80.235100 -25.010800   0.000690   0.001308  -7.503680  -0.003896   0.000327 -33.276600   5.659960  -8.546310 -27.572600  -0.001620  -0.000056 -19.307500  -0.010559   0.003916 -28.706200  -0.031002   0.056609 -39.205300  -0.006893   0.001552 -26.110700  -0.000242   0.000379 -28.138600  -0.853693   1.595720 -33.040100  -0.005330   0.001906 -22.006000  -0.012669   0.001309 -29.536200  -3.284860   5.774730 -44.550800  -0.013498   0.007446 -29.672100   0.000371   0.000139  10.003700   2.642840   4.645620  67.813000   3.240720  -1.695600   2.259480 -11.051500  11.182500 -12.267600 -11.325700  -4.701630 -34.881500  27.403900  64.218000  32.084100   0.003187  -0.009082  11.042800  -0.005690  -0.004830  26.830400   1.886180   3.723120  22.002300   0.005201   0.000383  15.401700   0.008680  -0.000686  25.668300  -0.713943  -1.486350  25.677500   0.005835   0.000068  17.101200  -0.003211  -0.000980  25.378800  -2.798920  -5.879600  25.522600   0.003608  -0.008846  16.998000  -0.001168  -0.004858  30.743900  -3.337490  -5.590900  46.360700  -0.004136  -0.006390  30.876200  -0.005029  -0.002946  -0.340315   4.792710   2.165920   0.256225   0.734385  12.085100  -4.598010  -3.410960   5.152790   0.000000   0.000000   0.000000   1.198010   5.247860  -7.623580   0.771900   1.353620  -7.529750  -9.262760  -0.096300   0.932861   0.000000   0.000000   0.000000
  1.105770  89.958200   1.141940  -0.330116  -3.264130  -0.589679  -0.574259   3.318050  -0.102656  -1.145440   6.636970  -0.172367   0.708429   0.904117  -0.005815   1.164550   1.832440   6.164640  -2.840180  -0.229982   3.035950 -71.182500  14.165500   1.260720  -3.119940  -6.386040 -16.092600  11.204800  -2.653370   4.519000  48.125600  41.432600 -80.230400 -25.015200   0.000697   0.001277  -7.503420  -0.003902   0.000295 -33.281200   5.667180  -8.555420 -27.577200  -0.001624  -0.000147 -19.307500  -0.010584   0.003929 -28.706300  -0.018057   0.032969 -39.225800  -0.006874   0.001557 -26.124400  -0.000202   0.000328 -28.139300  -0.842989   1.575550 -33.058400  -0.005314   0.001911 -22.016900  -0.012702   0.001313 -29.544300  -3.278530   5.761670 -44.564000  -0.013511   0.007501 -29.679600   0.000365   0.000149  10.001000   2.625100   4.656030  67.782500   3.212270  -1.661990   2.243540 -11.135700  11.148800 -12.279000 -11.264500  -4.712250 -34.886700  27.375900  64.202400  32.074000   0.003176  -0.009097  11.037000  -0.005697  -0.004787  26.843700   1.889870   3.728260  22.013300   0.005193   0.000385  15.409400   0.008678  -0.000617  25.682200  -0.716155  -1.488910  25.691500   0.005825   0.000073  17.110500  -0.003217  -0.000909  25.401600  -2.802680  -5.878940  25.545500   0.003593  -0.008852  17.013300  -0.001184  -0.004807  30.788300  -3.343240  -5.589950  46.427300  -0.004089  -0.006371  30.920600  -0.004973  -0.002910  -0.341269   4.869920   2.164730   0.254063   0.667212  12.076200  -4.597300  -3.409150   5.148690   0.000000   0.000000  -0.000000   1.194450   5.263950  -7.633110   0.772194   1.365160  -7.543870  -9.260160  -0.103952   0.939638   0.000000   0.000000   0.000000
  1.111790  89.958200   1.145910  -0.329336  -3.289870  -0.573742  -0.568444   3.330590  -0.101032  -1.133860   6.662020  -0.169459   0.660882   0.958534  -0.005827   1.086580   1.942960   6.315650  -2.863600  -0.226387   3.054960 -71.172900  14.218800   1.187160  -3.111960  -6.449780 -16.086100  11.206000  -2.651430   4.486150  48.131100  41.432300 -80.228900 -25.015800   0.000690   0.001251  -7.503160  -0.003907   0.000258 -33.278500   5.676100  -8.569020 -27.576900  -0.001632  -0.000219 -19.305800  -0.010599   0.003922 -28.706400  -0.004362   0.007967 -39.247700  -0.006853   0.001564 -26.139000  -0.000155   0.000268 -28.139800  -0.836417   1.563180 -33.067700  -0.005295   0.001917 -22.023100  -0.012742   0.001318 -29.551500  -3.273840   5.751870 -44.574100  -0.013528   0.007568 -29.686400   0.000359   0.000160   9.993180   2.615840   4.671910  67.744000   3.183790  -1.604610   2.219920 -11.204100  11.119800 -12.287600 -11.224700  -4.745810 -34.917500  27.388700  64.187900  32.061900   0.003170  -0.009100  11.030900  -0.005713  -0.004737  26.830200   1.878890   3.708820  22.001700   0.005187   0.000386  15.401300   0.008674  -0.000533  25.669600  -0.730168  -1.518020  25.679300   0.005814   0.000082  17.102400  -0.003226  -0.000823  25.395100  -2.813410  -5.899470  25.540300   0.003576  -0.008855  17.009800  -0.001203  -0.004745  30.800900  -3.357720  -5.608760  46.448200  -0.004035  -0.006363  30.934500  -0.004904  -0.002867  -0.344832   4.830200   2.161370   0.256365   0.736333  12.068500  -4.594950  -3.409020   5.145090  -0.000000   0.000000  -0.000000   1.189990   5.284260  -7.644360   0.773024   1.379160  -7.553970  -9.257860  -0.112131   0.944035   0.000000   0.000000  -0.000000
